<svg xmlns="http://www.w3.org/2000/svg" xmlns:xlink="http://www.w3.org/1999/xlink" viewBox="0 0 285.04 134.11"><defs><style>.cls-1{fill:url(#linear-gradient);}.cls-2{stroke:#231f20;stroke-miterlimit:10;stroke-width:2px;fill:url(#linear-gradient-12);}.cls-3{fill:url(#linear-gradient-13);}.cls-4{fill:#f5ff11;}.cls-5,.cls-6{font-size:76.45px;font-family:MicrosoftYaHeiUI-Bold, Microsoft YaHei UI;font-weight:700;}.cls-5{fill:#fff;}.cls-6{fill:none;stroke:#000305;stroke-linejoin:round;stroke-width:3px;}</style><linearGradient id="linear-gradient" x1="267.49" y1="114.1" x2="173.59" y2="20.2" gradientUnits="userSpaceOnUse"><stop offset="0" stop-color="#00e443"/><stop offset="1" stop-color="#d2ff4f"/></linearGradient><linearGradient id="linear-gradient-12" x1="136.81" y1="115.3" x2="92.19" y2="70.68" gradientUnits="userSpaceOnUse"><stop offset="0" stop-color="#c97eff"/><stop offset="1" stop-color="#ff3459"/></linearGradient><linearGradient id="linear-gradient-13" x1="100.45" y1="100.45" x2="18.28" y2="18.29" xlink:href="#linear-gradient"/></defs><g id="Layer_2" data-name="Layer 2"><g id="Logo"><path class="cls-1" d="M178.45,58.55A19,19,0,0,1,170.59,60c-8.39,0-14.7-5.29-14.7-15.05,0-9.32,6.31-15.64,15.54-15.64a16,16,0,0,1,7.07,1.33l-.93,3.13a14.11,14.11,0,0,0-6-1.23c-7,0-11.61,4.46-11.61,12.27,0,7.29,4.19,12,11.44,12a15.24,15.24,0,0,0,6.27-1.24Z"/><path class="cls-1" d="M202,48.66c0,7.9-5.48,11.35-10.65,11.35-5.78,0-10.24-4.24-10.24-11,0-7.15,4.68-11.35,10.6-11.35C197.83,37.66,202,42.12,202,48.66Zm-17,.22c0,4.68,2.69,8.21,6.49,8.21s6.49-3.48,6.49-8.3c0-3.62-1.81-8.21-6.4-8.21S185,44.82,185,48.88Z"/><path class="cls-1" d="M225.34,28.17V54c0,1.9,0,4.07.18,5.52H222l-.17-3.71h-.09a7.91,7.91,0,0,1-7.29,4.2c-5.17,0-9.14-4.37-9.14-10.86,0-7.11,4.37-11.49,9.58-11.49a7.15,7.15,0,0,1,6.45,3.27h.09V28.17Zm-3.88,18.68a6.9,6.9,0,0,0-.18-1.63,5.71,5.71,0,0,0-5.61-4.51c-4,0-6.4,3.53-6.4,8.26,0,4.33,2.12,7.9,6.31,7.9a5.84,5.84,0,0,0,5.7-4.63,6.87,6.87,0,0,0,.18-1.68Z"/><path class="cls-1" d="M236.11,32.14a2.41,2.41,0,0,1-4.81,0,2.37,2.37,0,0,1,2.43-2.42A2.3,2.3,0,0,1,236.11,32.14Zm-4.32,27.38V38.15h3.88V59.52Z"/><path class="cls-1" d="M242.12,43.93c0-2.2,0-4-.18-5.78h3.45l.22,3.53h.09a7.86,7.86,0,0,1,7.06-4c3,0,7.55,1.77,7.55,9.1V59.52h-3.88V47.2c0-3.44-1.28-6.31-5-6.31A5.68,5.68,0,0,0,246,46.67V59.52h-3.89Z"/><path class="cls-1" d="M285,38.15c-.09,1.55-.18,3.27-.18,5.87V56.43c0,4.9-1,7.91-3,9.76s-5.08,2.56-7.78,2.56A13.9,13.9,0,0,1,266.93,67l1-3a12.07,12.07,0,0,0,6.27,1.68c4,0,6.89-2.08,6.89-7.47V55.86H281a7.63,7.63,0,0,1-6.8,3.57c-5.3,0-9.1-4.5-9.1-10.42,0-7.24,4.73-11.35,9.63-11.35a7.1,7.1,0,0,1,6.66,3.71h.09l.18-3.22Zm-4,8.43a5.41,5.41,0,0,0-.22-1.76,5.61,5.61,0,0,0-5.43-4.11c-3.71,0-6.36,3.14-6.36,8.08,0,4.2,2.12,7.69,6.31,7.69a5.69,5.69,0,0,0,5.39-4,6.75,6.75,0,0,0,.31-2.07Z"/><path class="cls-1" d="M188.73,98.25V78q0-2.8.28-7h-.17a38.35,38.35,0,0,1-1,4.29l-8.23,23h-5.68l-8.34-22.81c-.2-.54-.55-2-1.06-4.5h-.19q.28,4.2.28,8.43V98.25h-6.42V64.86H168.5L175.71,85a23.85,23.85,0,0,1,1.22,4.7h.16A46.38,46.38,0,0,1,178.47,85l7.22-20.13h10.07V98.25Z"/><path class="cls-1" d="M225.16,98.25h-6.92V94.61h-.1a8.27,8.27,0,0,1-7.31,4.23q-8.33,0-8.33-10V74.41h7V88.14q0,5.35,4.18,5.35A4.16,4.16,0,0,0,217,92a5.86,5.86,0,0,0,1.25-4V74.41h6.92Z"/><path class="cls-1" d="M230.86,91.85a13.44,13.44,0,0,0,7,2.18q4.32,0,4.32-2.31,0-1.64-3.56-2.74c-3-.92-5-1.94-6.1-3.07a6.24,6.24,0,0,1-1.66-4.58,6.38,6.38,0,0,1,2.84-5.51,12.75,12.75,0,0,1,7.46-2,20.56,20.56,0,0,1,6.32,1v5.47a11.89,11.89,0,0,0-6.12-1.64,5.24,5.24,0,0,0-2.68.6,1.76,1.76,0,0,0-1,1.56c0,1.09,1,2,3,2.65a32.51,32.51,0,0,1,4.86,2A6.35,6.35,0,0,1,248,87.73a6.43,6.43,0,0,1,.85,3.34,6.56,6.56,0,0,1-2.95,5.73,13.65,13.65,0,0,1-7.89,2,20.39,20.39,0,0,1-7.18-1.23Z"/><path class="cls-1" d="M252.65,66.71a3.33,3.33,0,0,1,1.13-2.6,4.24,4.24,0,0,1,2.91-1,4.16,4.16,0,0,1,2.93,1,3.36,3.36,0,0,1,1.12,2.57,3.41,3.41,0,0,1-1.14,2.62,4.16,4.16,0,0,1-2.91,1,4.1,4.1,0,0,1-2.89-1.06A3.38,3.38,0,0,1,252.65,66.71Zm.52,31.54V74.41h6.94V98.25Z"/><path class="cls-1" d="M284.22,97.37a14.18,14.18,0,0,1-7.12,1.47,12,12,0,0,1-8.82-3.33,11.56,11.56,0,0,1-3.36-8.6q0-6.07,3.62-9.58t9.66-3.5a12.55,12.55,0,0,1,6,1.12v6A8.72,8.72,0,0,0,279,79.17a6.91,6.91,0,0,0-5.12,1.94A7.22,7.22,0,0,0,272,86.44a7.1,7.1,0,0,0,1.83,5.16,6.64,6.64,0,0,0,5,1.89,9.69,9.69,0,0,0,5.44-1.77Z"/><path class="cls-2" d="M149,65.79,113.67,49.2V92.51a33.83,33.83,0,0,0-7.7-.88c-14.73,0-26.67,9.28-26.67,20.74S91.24,133.11,106,133.11s26.66-9.29,26.66-20.74V77.07L149,84.75Z"/><path class="cls-3" d="M71.44,108.66c0-12.28,12.81-22.24,28.6-22.24.66,0,1.32,0,2,.06h0a34.31,34.31,0,0,1,6.24.58V40.92l14.84,7a62.46,62.46,0,1,0-45.11,75A19.47,19.47,0,0,1,71.44,108.66Z"/><circle class="cls-4" cx="63.58" cy="64.42" r="32"/><text class="cls-5" transform="translate(10.3 87.3) scale(0.7 1)">&lt;/&gt;</text><text class="cls-6" transform="translate(10.3 87.3) scale(0.7 1)">&lt;/&gt;</text></g></g></svg>